<svg width="64" height="64" viewBox="0 0 64 64" fill="none" xmlns="http://www.w3.org/2000/svg">
<rect width="64" height="64" rx="12" fill="#0D1117"/>
<path d="M24.7071 19.2929C24.3166 18.9024 23.6834 18.9024 23.2929 19.2929L16.2929 26.2929C15.9024 26.6834 15.9024 27.3166 16.2929 27.7071L23.2929 34.7071C23.6834 35.0976 24.3166 35.0976 24.7071 34.7071C25.0976 34.3166 25.0976 33.6834 24.7071 33.2929L18.4142 27L24.7071 20.7071C25.0976 20.3166 25.0976 19.6834 24.7071 19.2929Z" fill="#34D399"/>
<path d="M39.2929 44.7071C39.6834 45.0976 40.3166 45.0976 40.7071 44.7071L47.7071 37.7071C48.0976 37.3166 48.0976 36.6834 47.7071 36.2929L40.7071 29.2929C40.3166 28.9024 39.6834 28.9024 39.2929 29.2929C38.9024 29.6834 38.9024 30.3166 39.2929 30.7071L45.5858 37L39.2929 43.2929C38.9024 43.6834 38.9024 44.3166 39.2929 44.7071Z" fill="#34D399"/>
<path d="M34.4142 16.2929C34.8047 15.9024 34.8047 15.2692 34.4142 14.8787C34.0237 14.4882 33.3905 14.4882 33 14.8787L25.2929 22.5858C24.9024 22.9763 24.9024 23.6095 25.2929 24L33 31.7071C33.3905 32.0976 34.0237 32.0976 34.4142 31.7071C34.8047 31.3166 34.8047 30.6834 34.4142 30.2929L27.1213 23.2929L34.4142 16.2929Z" fill="#10B981" transform="rotate(20 32 32)"/>
</svg>
